<svg xmlns="http://www.w3.org/2000/svg" xmlns:xlink="http://www.w3.org/1999/xlink" width="495" height="411" viewBox="0 0 495 411">
    <defs>
        <path id="a" d="M1 0h11.768a1 1 0 0 1 1 1v28.072a1 1 0 0 0 1 1H44.35a1 1 0 0 1 1 1v9.878a1 1 0 0 1-1 1H1a1 1 0 0 1-1-1V1a1 1 0 0 1 1-1z"/>
        <path id="b" d="M1 0h11.768a1 1 0 0 1 1 1v28.072a1 1 0 0 0 1 1H44.35a1 1 0 0 1 1 1v9.878a1 1 0 0 1-1 1H1a1 1 0 0 1-1-1V1a1 1 0 0 1 1-1z"/>
        <path id="c" d="M0 7.937h38.549v32.88H0z"/>
    </defs>
    <g fill="none" fill-rule="evenodd">
        <path fill="#F8CA98" d="M500 184.476l-25.51 44.185h-51.02l-25.51-44.185 25.51-44.185h51.02z"/>
        <path fill="#FE9EA8" d="M420.635 229.828l-25.51 44.185h-51.02l-25.51-44.185 25.51-44.185h51.02z"/>
        <path fill="#F6AE97" d="M500 275.18l-25.51 44.184h-51.02l-25.51-44.185 25.51-44.185h51.02z"/>
        <path fill="#9FCFDA" d="M181.406 183.342l-25.51 44.185h-51.02l-25.51-44.185 25.51-44.185h51.02z"/>
        <path fill="#ADC9B8" d="M260.771 229.828l-25.51 44.185h-51.02l-25.51-44.185 25.51-44.185h51.02z"/>
        <path fill="#F8CA98" d="M102.04 228.694l-25.51 44.185H25.51L0 228.694l25.51-44.185h51.02z"/>
        <path fill="#F6AE97" d="M420.635 137.99l-25.51 44.186h-51.02l-25.51-44.185 25.51-44.185h51.02z"/>
        <path fill="#F8CA98" d="M420.635 320.53l-25.51 44.186h-51.02l-25.51-44.185 25.51-44.185h51.02z"/>
        <path fill="#9FCFDA" d="M341.27 365.882l-25.51 44.185h-51.02l-25.511-44.185 25.51-44.185h51.02z"/>
        <path fill="#FE9EA8" d="M260.771 320.53l-25.51 44.186h-51.02l-25.51-44.185 25.51-44.185h51.02z"/>
        <path fill="#ADC9B8" d="M341.27 184.476l-25.51 44.185h-51.02l-25.511-44.185 25.51-44.185h51.02z"/>
        <path fill="#FFF" d="M238.079 220.14l9.637 16.692-44.185 25.51-9.637-16.692z"/>
        <path fill="#497912" d="M234.151 222.408l9.637 16.692-8.836 5.102-9.637-16.692z"/>
        <path fill="#77B133" d="M222.368 229.21l9.637 16.693-8.837 5.102-9.637-16.692z"/>
        <path fill="#BFDD9D" d="M211.568 235.446l9.637 16.692-8.837 5.102-9.637-16.692z"/>
        <path fill="#FFF" d="M217.07 205.468l16.692 9.637-25.51 44.184-16.692-9.637z"/>
        <path fill="#2C6BB4" d="M214.803 209.395l16.691 9.637-5.102 8.837-16.691-9.637z"/>
        <path fill="#77A8E0" d="M208 221.178l16.691 9.637-5.102 8.837-16.691-9.637z"/>
        <path fill="#C5DEFB" d="M201.764 231.978l16.692 9.637-5.102 8.837-16.692-9.637z"/>
        <g>
            <path fill="#FFF" d="M192.744 204.884h19.274v51.02h-19.274z"/>
            <path fill="#DC2263" fill-opacity=".99" d="M192.744 209.42h19.274v10.203h-19.274z"/>
            <path fill="#F96C9E" fill-opacity=".99" d="M192.744 223.025h19.274v10.204h-19.274z"/>
            <path fill="#F1C8D0" d="M192.744 235.496h19.274V245.7h-19.274z"/>
        </g>
        <g transform="rotate(5 -3096.297 4124.406)">
            <path fill="#FAF7F7" stroke="#979797" stroke-width=".5" d="M42.53 7.021l1.63 14.118a2 2 0 0 1-.56 1.63L28.964 37.676a2 2 0 0 1-2.457.314l-5.94-3.57a2 2 0 0 1-.895-2.26l5.75-20.279a2 2 0 0 1 1.194-1.316l13.197-5.175A2 2 0 0 1 42.53 7.02zM30.95 22.141a2.268 2.268 0 1 0 2.336-3.888 2.268 2.268 0 0 0-2.336 3.888z"/>
            <rect width="14.739" height="3.401" x="15.873" y="35.147" fill="#417505" rx="1.701" transform="rotate(31 23.243 36.848)"/>
            <path fill="#92B46C" d="M17.26 35.094l10.835 6.51-7.412 17.178A8.65 8.65 0 0 1 8.287 62.77 8.271 8.271 0 0 1 5.85 50.823l11.41-15.73z"/>
            <path stroke="#979797" stroke-linecap="square" stroke-width=".5" d="M41.289 6.35l-6.614 12.244"/>
        </g>
        <g>
            <path fill="#A8C6EA" d="M453.539 199.41l-18.06-14.11 15.31-25.904a7 7 0 0 1 9.594-2.46c3.866 2.29 6.486 3.97 7.859 5.043 1.314 1.027 3.25 2.874 5.806 5.542a7 7 0 0 1 .088 9.593l-20.597 22.297z"/>
            <path fill="#E6D5C6" d="M433.77 203.543l1.9-18.093 17.869 13.96-17.096 6.221a2 2 0 0 1-2.673-2.088z"/>
            <path fill="#4A4A4A" d="M433.909 205.741l.03-1.5 2.68 2.094-1.45.391a1 1 0 0 1-1.26-.985z"/>
            <path fill="#4D7EB7" d="M447.416 194.627l-5.32-4.156 21.545-31.614c2.625 1.736 4.241 2.84 4.848 3.315.607.474 1.97 1.696 4.086 3.665l-25.159 28.79z"/>
        </g>
        <g>
            <g transform="matrix(1 0 0 -1 273.243 209.42)">
                <use fill="#F6A623" xlink:href="#a"/>
                <path stroke="#979797" stroke-width="4" d="M2 2v37.95h41.351v-7.878H14.768a3 3 0 0 1-3-3V2H2z"/>
            </g>
            <g transform="matrix(1 0 0 -1 273.243 209.42)">
                <use fill="#F6A623" xlink:href="#b"/>
                <path stroke="#979797" d="M1 .5a.5.5 0 0 0-.5.5v39.95a.5.5 0 0 0 .5.5h43.351a.5.5 0 0 0 .5-.5v-9.878a.5.5 0 0 0-.5-.5H14.768a1.5 1.5 0 0 1-1.5-1.5V1a.5.5 0 0 0-.5-.5H1z"/>
            </g>
            <path stroke="#979797" stroke-linecap="square" d="M311.224 168.67v4.402M304.422 168.665v7.813M296.485 168.67v4.402M289.683 168.665v7.813M273.876 202.617h4.402M274.438 195.247h7.813M273.876 187.878h4.402M274.438 181.642h7.813M273.876 174.272h4.402"/>
        </g>
        <g>
            <path fill="#9FCFDA" d="M418.367 45.02l-25.51 44.185h-51.02l-25.51-44.185L341.837.835h51.02z"/>
            <text fill="#4A4A4A" font-family="STSongti-TC-Regular, Songti TC" font-size="50" letter-spacing="2.93" transform="translate(343.327 12)">
                <tspan x="0" y="51">Ｔ</tspan>
            </text>
        </g>
        <g stroke="#979797" transform="rotate(37 -263.11 179.347)">
            <g fill="#FAF7F7">
                <path d="M18.844 35.147c3.15 0 1.542-6.818-4.824-20.454L8.922 4.316a1 1 0 0 0-1.896.495c.347 6.394.83 11.222 1.45 14.484.688 3.62 5.643 15.852 10.368 15.852z"/>
                <path d="M19.717 35.147c-1.41 0-2.71 0-2.71-2.118 0-1.413 2.59-7.538 7.77-18.376l5.46-10.616a1 1 0 0 1 1.887.513c-.364 6.507-.875 11.411-1.532 14.713-.721 3.627-5.918 15.884-10.875 15.884z"/>
            </g>
            <circle cx="19.841" cy="31.179" r="1" fill="#9B9B9B"/>
            <path fill="#8AB3E3" d="M5.853 53.3c1.739.848 4.302 1.736 5.926.365 1.623-1.372 3.39-5.41 4.573-7.835 1.456-2.986 2.876-7.606 2.693-9.724-.184-2.12-1.839-2.449-3.271-3.148-1.115-.543-3.368-.987-5.769.088-2.4 1.076-2.989 3.811-4.73 7.382-1.515 3.105-2.816 5.637-2.586 7.618.23 1.98 1.796 4.587 3.164 5.254zm1.969-4.086c-.87-.424-1.893-2.029-2.066-3.234-.174-1.205.61-2.724 1.518-4.587 1.045-2.142 1.376-3.794 2.871-4.413 1.496-.618 2.92-.316 3.63.03.911.444 1.957.668 2.103 1.957.146 1.288-.681 4.072-1.555 5.864-.71 1.454-1.764 3.88-2.766 4.69-1.002.81-2.629.233-3.735-.307z"/>
            <path fill="#8AB3E4" d="M32.696 53.3c-1.739.848-4.303 1.736-5.926.365-1.623-1.372-3.39-5.41-4.573-7.835-1.456-2.986-2.877-7.606-2.693-9.724.184-2.12 1.838-2.449 3.27-3.148 1.115-.543 3.369-.987 5.77.088 2.4 1.076 2.988 3.811 4.73 7.382 1.514 3.105 2.816 5.637 2.585 7.618-.23 1.98-1.795 4.587-3.163 5.254zm-1.97-4.086c.871-.424 1.894-2.029 2.067-3.234.173-1.205-.61-2.724-1.518-4.587-1.045-2.142-1.376-3.794-2.871-4.413-1.496-.618-2.92-.316-3.63.03-.912.444-1.958.668-2.103 1.957-.146 1.288.681 4.072 1.555 5.864.71 1.454 1.764 3.88 2.766 4.69 1.002.81 2.628.233 3.735-.307z"/>
        </g>
        <g transform="translate(424.036 252.503)">
            <circle cx="27.778" cy="24.376" r="24.376" fill="#A2C6AB" stroke="#979797"/>
            <use fill="#C1D9F5" fill-opacity=".599" xlink:href="#c"/>
            <path stroke="#FFF" d="M.5 8.437h37.549v31.88H.5z"/>
        </g>
    </g>
</svg>
