<svg xmlns="http://www.w3.org/2000/svg" width="251" height="318" viewBox="0 0 251 318">
    <g fill="none" fill-rule="evenodd">
        <path fill="#ADC9B8" d="M93.174 273.242l-25.51 44.217h-51.02l-25.51-44.217 25.51-44.218h51.02zM92.04 89.569l-25.51 44.217H15.51L-10 89.57 15.51 45.35h51.02z"/>
        <path fill="#9FCFDA" d="M171.405 44.218l-25.51 44.217h-51.02l-25.51-44.217L94.875 0h51.02z"/>
        <path fill="#FE9EA8" d="M250.77 272.108l-25.51 44.217h-51.02l-25.51-44.217 25.51-44.218h51.02z"/>
        <path fill="#F8CA98" d="M92.04 181.405l-25.51 44.218H15.51L-10 181.405l25.51-44.217h51.02z"/>
        <path fill="#F6AE97" d="M171.405 226.757l-25.51 44.184h-51.02l-25.51-44.184 25.51-44.185h51.02z"/>
        <g stroke="#979797" transform="rotate(-45 226.189 82.634)">
            <circle cx="23.243" cy="20.975" r="20.975" stroke-width="2"/>
            <path fill="#90C09B" stroke-width="2" d="M2.268 21.542c0 11.897 9.39 21.542 20.975 21.542 11.584 0 20.975-9.645 20.975-21.542H2.268z"/>
            <circle cx="23.809" cy="21.542" r="2.268" fill="#D8D8D8"/>
            <circle cx="45.351" cy="21.542" r="2.268" fill="#D8D8D8"/>
            <circle cx="2.268" cy="21.542" r="2.268" fill="#D8D8D8"/>
        </g>
        <g transform="translate(98.843 207.482)">
            <rect width="45.351" height="38.549" fill="#A3C6F0" rx="1"/>
            <path fill="#C9E7A7" d="M45.351 19.494v19.055H0v-9.3l9.299-7.77 6.731 3.956 15.335-14.097z"/>
            <circle cx="12.472" cy="11.338" r="4.535" fill="#F2D29D"/>
        </g>
    </g>
</svg>
