<svg xmlns="http://www.w3.org/2000/svg" width="171" height="27" viewBox="0 0 171 27">
    <path fill="#154F5E" fill-rule="evenodd" d="M9.93 3.36v-.03l3.99 13.05L18.3 2.37c.32-1 .91-1.5 1.77-1.5h.15c.2 0 .48.03.84.09.4.1.64.15.72.15.16.02.34.035.54.045.2.01.42.015.66.015.54 0 .96-.03 1.26-.09l.87-.15c.08-.04.27-.06.57-.06 1.22 0 1.83.47 1.83 1.41 0 .88-.47 1.32-1.41 1.32a4.894 4.894 0 0 1-.75-.06 4.197 4.197 0 0 0-.435-.045c-.17-.01-.245-.025-.225-.045-.62.02-.93.61-.93 1.77v2.01l-.03 2.55v2.43l.03 4.56c0 1.16.32 1.74.96 1.74.08 0 .155-.005.225-.015.07-.01.145-.015.225-.015.22-.04.38-.06.48-.06h.21c.06 0 .11-.005.15-.015a.41.41 0 0 1 .09-.015c.94 0 1.41.44 1.41 1.32 0 .46-.16.84-.48 1.14-.32.3-.74.4-1.26.3-.4-.04-.7-.055-.9-.045-.2.01-.44-.015-.72-.075-.48-.04-.88-.08-1.2-.12-.32-.04-.65-.06-.99-.06-.42 0-.835.015-1.245.045-.41.03-.825.085-1.245.165-.36.06-.7.09-1.02.09-1.08 0-1.62-.45-1.62-1.35 0-.92.55-1.38 1.65-1.38.12 0 .215-.005.285-.015a.38.38 0 0 1 .225.045c.1.02.19.03.27.03h.42c.4 0 .66-.59.78-1.77.02-.2.035-.55.045-1.05.01-.5.015-1.12.015-1.86v-1.17c0-.46.01-.99.03-1.59 0-.36.01-.795.03-1.305.02-.51.03-.945.03-1.305V5.46l-4.65 14.46a2.14 2.14 0 0 1-.765 1.005c-.35.25-.785.375-1.305.375-.64 0-1.115-.1-1.425-.3-.31-.2-.545-.56-.705-1.08A1253.143 1253.143 0 0 1 7.2 5.58l.15 11.16c.02 1.14.24 1.71.66 1.71.16 0 .41-.04.75-.12h.45c1.08 0 1.62.47 1.62 1.41s-.55 1.41-1.65 1.41h-.24c-.08 0-.17-.01-.27-.03h.03a.418.418 0 0 0-.18-.03l-1.38-.21c-.4-.06-.86-.09-1.38-.09-1.02 0-1.68.03-1.98.09l-1.23.24c-.06 0-.11.01-.15.03h-.24c-1.22 0-1.83-.47-1.83-1.41 0-.4.14-.725.42-.975.28-.25.6-.375.96-.375.14 0 .3.01.48.03.18.02.34.04.48.06.08.02.18.03.3.03.06 0 .11.01.15.03.64 0 .96-.58.96-1.74V5.22c0-1.12-.31-1.71-.93-1.77 0 .02-.09.035-.27.045-.18.01-.32.025-.42.045a5.162 5.162 0 0 1-.75.06C.79 3.6.33 3.16.33 2.28c0-.94.6-1.41 1.8-1.41h.195c.09 0 .175.01.255.03l.99.12c.48.06.93.09 1.35.09.18 0 .385-.01.615-.03.23-.02.495-.05.795-.09.32-.04.6-.07.84-.09.24-.02.44-.03.6-.03 1 0 1.65.57 1.95 1.71l.21.78zm32.8 18c-1.48 0-2.48-.5-3-1.5-1.06 1.08-2.53 1.62-4.41 1.62-1.7 0-3.05-.415-4.05-1.245-1-.83-1.5-1.935-1.5-3.315 0-.84.205-1.585.615-2.235.41-.65.965-1.175 1.665-1.575.54-.3 1.01-.5 1.41-.6.38-.1 1.15-.22 2.31-.36 1.52-.16 2.49-.37 2.91-.63.34-.24.51-.69.51-1.35 0-.64-.225-1.15-.675-1.53-.45-.38-1.085-.57-1.905-.57-.78 0-1.49.22-2.13.66V8.7c-.14.14-.21.22-.21.24h.03c.42.36.63.79.63 1.29s-.185.91-.555 1.23c-.37.32-.835.48-1.395.48-.64 0-1.17-.205-1.59-.615-.42-.41-.63-.925-.63-1.545 0-1.2.59-2.21 1.77-3.03 1.12-.82 2.49-1.23 4.11-1.23 3.78 0 5.67 1.79 5.67 5.37v5.73c0 .4.005.735.015 1.005.01.27.025.455.045.555.1.44.26.66.48.66.34 0 .51-.47.51-1.41v-1.41c0-.86.45-1.29 1.35-1.29.96 0 1.44.58 1.44 1.74v.15l-.03 1.62c-.04 2.08-1.17 3.12-3.39 3.12zm-3.6-7.17c-.12.04-.235.085-.345.135-.11.05-.235.095-.375.135-.54.18-1.39.32-2.55.42-1.88.18-2.82.85-2.82 2.01 0 .58.215 1.045.645 1.395.43.35 1.025.525 1.785.525 1.14 0 2.025-.31 2.655-.93.63-.62.955-1.47.975-2.55l.03-1.14zm16.15 3.09c.5-1.38 1.01-2.74 1.53-4.08.52-1.34 1.02-2.7 1.5-4.08v.03c.06-.2.09-.37.09-.51 0-.06-.05-.09-.15-.09-.14 0-.29.02-.45.06-.08 0-.165.005-.255.015a2 2 0 0 1-.195.015c-.04 0-.08.005-.12.015a.493.493 0 0 1-.12.015c-.94 0-1.41-.44-1.41-1.32 0-.9.56-1.35 1.68-1.35h.21c.1 0 .19.01.27.03.02 0 .035.005.045.015.01.01.035.015.075.015l1.02.15c.14.02.275.03.405.03h.435a10.59 10.59 0 0 0 1.35-.09c.32-.04.605-.07.855-.09.25-.02.465-.03.645-.03 1.12 0 1.68.44 1.68 1.32 0 .88-.47 1.32-1.41 1.32-.28 0-.46-.02-.54-.06a.526.526 0 0 0-.165-.03.298.298 0 0 1-.135-.03c-.04 0-.07-.01-.09-.03-.14 0-.36.4-.66 1.2l-3.87 9.66c-.82 2.1-1.65 3.69-2.49 4.77-1.36 1.74-3.09 2.61-5.19 2.61-1.3 0-2.37-.32-3.21-.96-.92-.68-1.38-1.49-1.38-2.43 0-.7.215-1.275.645-1.725.43-.45.995-.675 1.695-.675.58 0 1.055.165 1.425.495.37.33.555.745.555 1.245 0 .56-.19.97-.57 1.23.12.08.245.125.375.135.13.01.295.015.495.015.88 0 1.67-.34 2.37-1.02.72-.66 1.08-1.4 1.08-2.22 0-.42-.25-1.25-.75-2.49l-3.12-7.89c-.02-.08-.05-.16-.09-.24-.04-.08-.08-.175-.12-.285a4.16 4.16 0 0 1-.12-.405c-.28-.68-.5-1.02-.66-1.02-.04 0-.095.005-.165.015-.07.01-.155.025-.255.045-.16.02-.345.045-.555.075-.21.03-.295.045-.255.045-.96 0-1.44-.44-1.44-1.32 0-.9.6-1.35 1.8-1.35h.42c.14 0 .24.01.3.03.18.02.355.045.525.075.17.03.345.055.525.075h.33c.1.02.18.03.24.03.34 0 .685-.01 1.035-.03.35-.02.715-.05 1.095-.09.6-.06 1.01-.09 1.23-.09 1.12 0 1.68.44 1.68 1.32 0 .9-.52 1.35-1.56 1.35a3.21 3.21 0 0 1-.6-.06c-.06 0-.125-.005-.195-.015a1.385 1.385 0 0 0-.195-.015c0 .12.03.24.09.36l2.79 8.31zm25.37-8.16h8.22V5.28c0-1.18-.32-1.77-.96-1.77a3.335 3.335 0 0 0-.45.06h.03c-.14.04-.295.07-.465.09-.17.02-.335.03-.495.03-.94 0-1.41-.45-1.41-1.35 0-.96.57-1.44 1.71-1.44.32 0 .84.06 1.56.18.36.06.695.1 1.005.12.31.02.605.03.885.03.42 0 .875-.01 1.365-.03.49-.02.965-.07 1.425-.15.26-.04.495-.07.705-.09.21-.02.365-.03.465-.03 1.18 0 1.77.47 1.77 1.41 0 .88-.47 1.32-1.41 1.32a4.557 4.557 0 0 1-.72-.06c-.12-.02-.27-.035-.45-.045-.18-.01-.27-.025-.27-.045-.6.02-.9.61-.9 1.77v11.49c0 1.16.31 1.74.93 1.74.04 0 .125-.005.255-.015.13-.01.265-.015.405-.015l.75-.09c.94 0 1.41.44 1.41 1.32 0 .96-.59 1.44-1.77 1.44-.26 0-.67-.06-1.23-.18-.62-.14-1.31-.21-2.07-.21-1.06 0-1.93.06-2.61.18-.4.08-.73.135-.99.165s-.42.045-.48.045c-1.16 0-1.74-.48-1.74-1.44 0-.9.47-1.35 1.41-1.35-.04 0 .04.01.24.03.2.02.37.04.51.06.12.02.24.03.36.03h.27c.54 0 .85-.41.93-1.23.02-.1.03-.94.03-2.52v-2.85h-8.22v2.88c0 1.58.01 2.42.03 2.52.12.82.44 1.23.96 1.23.02 0 .095-.005.225-.015.13-.01.265-.015.405-.015l.78-.09c.92 0 1.38.44 1.38 1.32 0 .96-.59 1.44-1.77 1.44-.22 0-.66-.06-1.32-.18-.46-.08-.89-.14-1.29-.18-.4-.04-.75-.06-1.05-.06-.4 0-.805.02-1.215.06-.41.04-.845.1-1.305.18l-.69.12-.18.045c-.04.01-.13.015-.27.015-1.2 0-1.8-.48-1.8-1.44 0-.34.14-.65.42-.93.28-.28.61-.42.99-.42a4.894 4.894 0 0 1 .75.06c.26.06.47.09.63.09.66 0 .99-.58.99-1.74V5.22c0-1.18-.33-1.77-.99-1.77-.06 0-.12.005-.18.015-.06.01-.14.025-.24.045-.16.04-.33.07-.51.09-.18.02-.33.03-.45.03-.38 0-.71-.14-.99-.42-.28-.28-.42-.59-.42-.93 0-.94.6-1.41 1.8-1.41.1 0 .24.01.42.03.18.02.38.05.6.09.04 0 .065.005.075.015.01.01.035.015.075.015.68.14 1.54.21 2.58.21.38 0 .96-.06 1.74-.18.8-.12 1.41-.18 1.83-.18 1.18 0 1.77.48 1.77 1.44 0 .4-.135.725-.405.975s-.595.375-.975.375a4.237 4.237 0 0 1-.99-.12.843.843 0 0 1-.165-.015.695.695 0 0 0-.135-.015c-.06 0-.1-.01-.12-.03-.34 0-.58.15-.72.45-.14.3-.22.74-.24 1.32l-.03 3.87zm30.61 12c-.76 0-1.19-.31-1.29-.93-1.04.86-2.36 1.29-3.96 1.29-2.42 0-4.11-.76-5.07-2.28-.2-.32-.36-.68-.48-1.08s-.19-.8-.21-1.2c-.02-.24-.03-.58-.03-1.02v-3.87c0-2.34-.12-3.51-.36-3.51-.04 0-.1.005-.18.015-.08.01-.17.025-.27.045-.1.02-.245.04-.435.06-.19.02-.265.03-.225.03-.98 0-1.47-.45-1.47-1.35 0-.86.57-1.29 1.71-1.29a8.091 8.091 0 0 1 .84.06 8.091 8.091 0 0 0 .84.06c.06 0 .17-.005.33-.015.16-.01.32-.035.48-.075a2.024 2.024 0 0 1 .54-.06c.92 0 1.38.49 1.38 1.47v.6l-.03 1.89-.09 2.1v1.8c0 .82.035 1.51.105 2.07.07.56.155 1.01.255 1.35.38 1.02 1.27 1.53 2.67 1.53.7 0 1.325-.16 1.875-.48.55-.32.935-.75 1.155-1.29.28-.68.42-2.03.42-4.05V9.57c-.06-.64-.15-.96-.27-.96-.08 0-.22.02-.42.06h-.42c-.98 0-1.47-.43-1.47-1.29 0-.92.53-1.38 1.59-1.38.1 0 .22.005.36.015.14.01.29.025.45.045a8.555 8.555 0 0 0 .75.06h.255c.11 0 .235-.01.375-.03a4.557 4.557 0 0 1 .72-.06c.9 0 1.35.43 1.35 1.29 0 .28-.02.52-.06.72v-.03c-.04.36-.075.8-.105 1.32s-.045 1.12-.045 1.8v4.38c0 1.12.01 1.73.03 1.83.1.82.2 1.23.3 1.23a5.12 5.12 0 0 0 .54-.06c.1-.02.235-.04.405-.06.17-.02.235-.03.195-.03.98 0 1.47.44 1.47 1.32 0 .92-.56 1.38-1.68 1.38h-.285c-.11 0-.215-.01-.315-.03a.493.493 0 0 1-.12-.015 14.166 14.166 0 0 0-.9-.105.247.247 0 0 0-.075.015.332.332 0 0 1-.105.015c-.12 0-.23.01-.33.03h.03c-.24.06-.48.09-.72.09zm19.15.24c-1.48 0-2.48-.5-3-1.5-1.06 1.08-2.53 1.62-4.41 1.62-1.7 0-3.05-.415-4.05-1.245-1-.83-1.5-1.935-1.5-3.315 0-.84.205-1.585.615-2.235.41-.65.965-1.175 1.665-1.575.54-.3 1.01-.5 1.41-.6.38-.1 1.15-.22 2.31-.36 1.52-.16 2.49-.37 2.91-.63.34-.24.51-.69.51-1.35 0-.64-.225-1.15-.675-1.53-.45-.38-1.085-.57-1.905-.57-.78 0-1.49.22-2.13.66V8.7c-.14.14-.21.22-.21.24h.03c.42.36.63.79.63 1.29s-.185.91-.555 1.23c-.37.32-.835.48-1.395.48-.64 0-1.17-.205-1.59-.615-.42-.41-.63-.925-.63-1.545 0-1.2.59-2.21 1.77-3.03 1.12-.82 2.49-1.23 4.11-1.23 3.78 0 5.67 1.79 5.67 5.37v5.73c0 .4.005.735.015 1.005.01.27.025.455.045.555.1.44.26.66.48.66.34 0 .51-.47.51-1.41v-1.41c0-.86.45-1.29 1.35-1.29.96 0 1.44.58 1.44 1.74v.15l-.03 1.62c-.04 2.08-1.17 3.12-3.39 3.12zm-3.6-7.17c-.12.04-.235.085-.345.135-.11.05-.235.095-.375.135-.54.18-1.39.32-2.55.42-1.88.18-2.82.85-2.82 2.01 0 .58.215 1.045.645 1.395.43.35 1.025.525 1.785.525 1.14 0 2.025-.31 2.655-.93.63-.62.955-1.47.975-2.55l.03-1.14zm12.61-8.16c.74 0 1.17.31 1.29.93 1.08-.96 2.44-1.44 4.08-1.44 1.12 0 2.17.28 3.15.84h-.03c1.04.6 1.73 1.31 2.07 2.13.3.7.45 1.59.45 2.67v6.81c.02.32.09.52.21.6.1 0 .23-.005.39-.015.16-.01.29-.025.39-.045a2.487 2.487 0 0 1 .57-.06c.36 0 .68.125.96.375.28.25.42.545.42.885 0 .4-.16.735-.48 1.005-.32.27-.71.405-1.17.405-.1 0-.255-.005-.465-.015a4.91 4.91 0 0 1-.645-.075c-.3-.04-.625-.075-.975-.105a10.896 10.896 0 0 0-1.53-.03c-.21.01-.395.025-.555.045-.44.06-.8.105-1.08.135-.28.03-.44.045-.48.045-1.08 0-1.62-.47-1.62-1.41 0-.84.48-1.26 1.44-1.26.08.02.16.03.24.03.08 0 .155.005.225.015.07.01.145.015.225.015.1.02.18.035.24.045.06.01.11.015.15.015.06.02.1.03.12.03.14 0 .22-.38.24-1.14 0-.24.01-.485.03-.735.02-.25.03-.495.03-.735l.03-1.71v-2.16c0-.9-.05-1.57-.15-2.01a2.383 2.383 0 0 0-.9-1.44v.03c-.58-.4-1.19-.6-1.83-.6-1.34 0-2.3.47-2.88 1.41-.4.68-.6 1.88-.6 3.6v3.78c0 .68.025 1.14.075 1.38.05.24.135.36.255.36.02 0 .08-.01.18-.03.1-.02.21-.04.33-.06.12-.04.235-.07.345-.09.11-.02.245-.03.405-.03.92 0 1.38.45 1.38 1.35 0 .9-.54 1.35-1.62 1.35-.1 0-.295-.02-.585-.06-.29-.04-.615-.08-.975-.12-.4-.06-.84-.09-1.32-.09-.18 0-.395.01-.645.03-.25.02-.545.05-.885.09l-.66.06c-.18.04-.35.065-.51.075-.16.01-.26.015-.3.015-1.12 0-1.68-.46-1.68-1.38 0-.86.46-1.29 1.38-1.29a1.84 1.84 0 0 1 .48.06c.26.06.53.09.81.09.24 0 .37-.41.39-1.23 0-.52.01-1.045.03-1.575.02-.53.03-1.055.03-1.575v-3.45l-.06-.99c-.04-.44-.08-.755-.12-.945-.04-.19-.11-.305-.21-.345a.888.888 0 0 1-.27.045c-.14.01-.25.025-.33.045-.12.02-.23.035-.33.045-.1.01-.2.015-.3.015-1 0-1.5-.44-1.5-1.32 0-.88.58-1.32 1.74-1.32.08 0 .145-.005.195-.015.05-.01.115.005.195.045l.99.12a4.557 4.557 0 0 0 .72-.06c.16-.02.295-.035.405-.045.11-.01.245-.015.405-.015zm23.05-.51a6.487 6.487 0 0 1 1.23.12c.16-.84.545-1.495 1.155-1.965s1.455-.705 2.535-.705c1.02 0 1.865.26 2.535.78.67.52 1.005 1.19 1.005 2.01 0 .58-.195 1.07-.585 1.47-.39.4-.845.6-1.365.6-.42 0-.795-.145-1.125-.435-.33-.29-.495-.635-.495-1.035 0-.18.025-.345.075-.495.05-.15.175-.305.375-.465a1.944 1.944 0 0 0-.255-.105.807.807 0 0 0-.255-.045c-.64 0-.99.44-1.05 1.32.7.52 1.235 1.115 1.605 1.785.37.67.555 1.425.555 2.265 0 1.42-.55 2.61-1.65 3.57-1.06.94-2.39 1.41-3.99 1.41-.58 0-1.155-.06-1.725-.18a7.544 7.544 0 0 1-1.725-.6c-.3-.1-.49-.15-.57-.15-.14 0-.265.075-.375.225a.913.913 0 0 0-.165.555c0 .72.83 1.08 2.49 1.08h.375c.07 0 .155-.01.255-.03h.39c1.84 0 3.35.18 4.53.54 1.14.36 2.045.91 2.715 1.65.67.74 1.005 1.59 1.005 2.55 0 .76-.175 1.44-.525 2.04-.35.6-.855 1.11-1.515 1.53-.66.42-1.46.74-2.4.96-.94.22-1.99.33-3.15.33-2.34 0-4.17-.41-5.49-1.23-1.32-.82-1.98-1.96-1.98-3.42 0-1.42.7-2.51 2.1-3.27-1.2-.64-1.8-1.55-1.8-2.73 0-.64.19-1.21.57-1.71.38-.5.89-.9 1.53-1.2-.22-.34-.365-.68-.435-1.02-.07-.34-.105-.71-.105-1.11 0-1.38.55-2.56 1.65-3.54 1.08-.9 2.43-1.35 4.05-1.35zm.09 2.67c-.7 0-1.3.21-1.8.63-.5.42-.77.95-.81 1.59v.12c0 .74.24 1.325.72 1.755.48.43 1.1.645 1.86.645.82 0 1.48-.215 1.98-.645.5-.43.75-.995.75-1.695 0-.7-.26-1.275-.78-1.725-.52-.45-1.16-.675-1.92-.675zm.03 11.01c-1.38 0-2.46.195-3.24.585-.78.39-1.17.905-1.17 1.545 0 .66.38 1.175 1.14 1.545.76.37 1.79.555 3.09.555 1.38 0 2.465-.19 3.255-.57.79-.38 1.185-.89 1.185-1.53 0-.66-.375-1.18-1.125-1.56-.75-.38-1.795-.57-3.135-.57z"/>
</svg>
