<svg xmlns="http://www.w3.org/2000/svg" width="421" height="317" viewBox="0 0 421 317">
    <g fill="#F5DFE1" fill-rule="evenodd">
        <path d="M102.04 180.237l-25.51 44.185H25.51L0 180.237l25.51-44.184h51.02zM181.404 226.722l-25.51 44.184h-51.02l-25.51-44.184 25.51-44.184h51.02zM260.768 181.371l-25.51 44.185h-51.02l-25.51-44.185 25.51-44.184h51.02zM182.538 134.886l-25.51 44.185h-51.02l-25.51-44.185 25.51-44.184h51.02zM181.404 44.184l-25.51 44.185h-51.02l-25.51-44.185L104.874 0h51.02zM340.132 226.755l-25.51 44.184h-51.02l-25.51-44.184 25.51-44.185h51.02zM420.63 272.106l-25.51 44.184H344.1l-25.51-44.184 25.51-44.185h51.02z"/>
    </g>
</svg>
